{"title":"La Peste (2018) S01 E05 - 720p x265 HEVC - SPA (ENG SUBS) [BRSHN","magnet":"magnet:?xt=urn:btih:97cef8ef1f561ec138de1042ce47c58bfee18756&dn=La+Peste+%282018%29+S01+E05+-+720p+x265+HEVC+-+SPA+%28ENG+SUBS%29+%5BBRSHN&tr=udp%3A%2F%2Ftracker.leechers-paradise.org%3A6969&tr=udp%3A%2F%2Fzer0day.ch%3A1337&tr=udp%3A%2F%2Fopen.demonii.com%3A1337&tr=udp%3A%2F%2Ftracker.coppersurfer.tk%3A6969&tr=udp%3A%2F%2Fexodus.desync.com%3A6969","uploader":"BRSHNKV","categoryP":"video","categoryS":"hd___tv_shows","size":"401822293","seeders":"9","leechers":"2","description":"Tech: \r\n\r\nFormat : MPEG-4 \r\nFormat profile : Base Media / Version 2 \r\nCodec ID : mp42 \r\nFile size : 383 MiB \r\nDuration : 42mn 1s \r\nOverall bit rate mode : Variable \r\nOverall bit rate : 1 275 Kbps \r\nMovie name : La Peste S01 E05 - 720p x265 HEVC [BRSHNKV] \r\nEncoded date : UTC 2018-04-03 23:42:38 \r\nTagged date : UTC 2018-04-03 23:42:38 \r\nWriting application : HandBrake 20160211184813-ffd8cb1-master 2016021301 \r\n\r\nVideo \r\nID : 1 \r\nFormat : HEVC \r\nFormat/Info : High Efficiency Video Coding \r\nFormat profile : Main <a href=\"/cdn-cgi/l/email-protection\" class=\"__cf_email__\" data-cfemail=\"013031414d322f30\">[email&#xA0;protected]</a>@Main \r\nCodec ID : hev1 \r\nCodec ID/Info : High Efficiency Video Coding \r\nDuration : 42mn 1s \r\nBit rate : 1 104 Kbps \r\nWidth : 1 280 pixels \r\nHeight : 720 pixels \r\nDisplay aspect ratio : 16:9 \r\nFrame rate mode : Constant \r\nFrame rate : 25.000 fps \r\nColor space : YUV \r\nChroma subsampling : 4:2:0 \r\nBit depth : 10 bits \r\nBits/(Pixel*Frame) : 0.048 \r\nStream size : 332 MiB (87%) \r\nWriting library : x265 1.9:[Mac OS X][clang 7.0.2][64 bit] 10bit \r\nEncoded date : UTC 2018-04-03 23:42:38 \r\nTagged date : UTC 2018-04-03 23:42:38 \r\nColor range : Limited \r\nColor primaries : BT.709 \r\nTransfer characteristics : BT.709 \r\nMatrix coefficients : BT.709 \r\n\r\nAudio \r\nID : 2 \r\nFormat : AAC \r\nFormat/Info : Advanced Audio Codec \r\nFormat profile : LC \r\nCodec ID : 40 \r\nDuration : 42mn 1s \r\nBit rate mode : Variable \r\nBit rate : 166 Kbps \r\nChannel(s) : 2 channels \r\nChannel positions : Front: L R \r\nSampling rate : 44.1 KHz \r\nCompression mode : Lossy \r\nStream size : 49.7 MiB (13%) \r\nTitle : Stereo / Stereo \r\nLanguage : English \r\nEncoded date : UTC 2018-04-03 23:42:38 \r\nTagged date : UTC 2018-04-03 23:42:38","last_updated":"2018-04-07T13:53:17.013Z","parsed":{"xt":"urn:btih:97cef8ef1f561ec138de1042ce47c58bfee18756","dn":"La Peste (2018) S01 E05 - 720p x265 HEVC - SPA (ENG SUBS) [BRSHN","tr":["udp://exodus.desync.com:6969","udp://open.demonii.com:1337","udp://tracker.coppersurfer.tk:6969","udp://tracker.leechers-paradise.org:6969","udp://zer0day.ch:1337"],"infoHash":"97cef8ef1f561ec138de1042ce47c58bfee18756","infoHashBuffer":{"type":"Buffer","data":[151,206,248,239,31,86,30,193,56,222,16,66,206,71,197,139,254,225,135,86]},"name":"La Peste (2018) S01 E05 - 720p x265 HEVC - SPA (ENG SUBS) [BRSHN","announce":["udp://exodus.desync.com:6969","udp://open.demonii.com:1337","udp://tracker.coppersurfer.tk:6969","udp://tracker.leechers-paradise.org:6969","udp://zer0day.ch:1337"],"urlList":[]}}